<svg width="37" height="35" viewBox="0 0 37 35" fill="none" xmlns="http://www.w3.org/2000/svg">
<path fill-rule="evenodd" clip-rule="evenodd" d="M12.124 7.04283C12.9847 4.18266 15.6438 2.09546 18.7962 2.09546C21.9485 2.09546 24.6076 4.18266 25.4683 7.04283L18.7962 7.04283L12.124 7.04283ZM27.582 7.25332C27.5677 7.18286 27.5525 7.11269 27.5365 7.04283C26.6262 3.06417 23.0586 0.0954594 18.7962 0.095459C14.5337 0.0954586 10.9661 3.06416 10.0558 7.04283C10.0398 7.11269 10.0246 7.18285 10.0103 7.25332H1.49631C1.17414 7.25332 0.936066 7.55354 1.00946 7.86724L7.056 33.7094C7.10892 33.9355 7.3106 34.0955 7.54285 34.0955H30.0494C30.2817 34.0955 30.4834 33.9355 30.5363 33.7094L36.5828 7.86724C36.6562 7.55354 36.4182 7.25332 36.096 7.25332H27.582ZM9.83097 9.0428C9.83097 9.04281 9.83097 9.04282 9.83097 9.04283H11.831L18.7962 9.04283L25.7613 9.04283H27.7613C27.7613 9.04282 27.7613 9.04281 27.7613 9.0428H34.5713L29.2185 31.9199C29.1656 32.146 28.9639 32.306 28.7316 32.306H8.86066C8.6284 32.306 8.42672 32.146 8.37381 31.9199L3.02103 9.0428H9.83097Z" fill="black"/>
</svg>
