<svg width="13" height="13" viewBox="0 0 13 13" fill="none" xmlns="http://www.w3.org/2000/svg">
<path d="M6.43851 12.9096C6.05718 12.9096 5.73651 12.7882 5.47651 12.5456C5.23385 12.2856 5.11251 11.9649 5.11251 11.5836V8.09958H1.62851C1.24718 8.09958 0.926512 7.96958 0.666512 7.70958C0.423846 7.44958 0.302512 7.12891 0.302512 6.74758C0.302512 6.36624 0.423846 6.05424 0.666512 5.81158C0.926512 5.55158 1.24718 5.42158 1.62851 5.42158H5.11251V1.93757C5.11251 1.57358 5.24251 1.26158 5.50251 1.00158C5.77985 0.741575 6.09185 0.611575 6.43851 0.611575C6.83718 0.611575 7.15785 0.741575 7.40051 1.00158C7.64318 1.24424 7.76451 1.55624 7.76451 1.93757V5.42158H11.2485C11.6125 5.42158 11.9245 5.55158 12.1845 5.81158C12.4618 6.07158 12.6005 6.39224 12.6005 6.77358C12.6005 7.13758 12.4618 7.44958 12.1845 7.70958C11.9245 7.96958 11.6125 8.09958 11.2485 8.09958H7.76451V11.5836C7.76451 11.9649 7.64318 12.2856 7.40051 12.5456C7.15785 12.7882 6.83718 12.9096 6.43851 12.9096Z" fill="black"/>
</svg>
